<svg width="100%" height="100%" viewBox="0 0 185 35" fill="none" xmlns="http://www.w3.org/2000/svg">
<path d="M13.952 1.96C16.384 1.96 18.112 2.49333 19.136 3.56C19.904 4.37067 20.288 5.39467 20.288 6.632C20.288 7.05867 20.2453 7.50667 20.16 7.976L19.872 9.512C19.6373 10.728 19.1787 11.6773 18.496 12.36C17.8347 13.0427 17.248 13.384 16.736 13.384L16.704 13.64C17.3013 13.64 17.9093 13.9707 18.528 14.632C19.1467 15.2933 19.456 16.072 19.456 16.968C19.456 17.3307 19.4133 17.7147 19.328 18.12L19.136 19.112C18.7947 20.9467 17.9733 22.3867 16.672 23.432C15.392 24.4773 13.6 25 11.296 25H0.608L4.672 1.96H13.952ZM11.072 15.592H8.032L7.264 20.008H10.304C10.3467 20.008 10.3893 20.008 10.432 20.008C11.4133 20.008 12.192 19.784 12.768 19.336C13.344 18.8667 13.632 18.3013 13.632 17.64C13.632 16.2747 12.7787 15.592 11.072 15.592ZM11.936 6.952H9.536L8.704 11.72H11.072C13.12 11.72 14.144 10.824 14.144 9.032C14.144 8.41333 13.952 7.912 13.568 7.528C13.2053 7.144 12.6613 6.952 11.936 6.952ZM31.3033 9.16C33.6073 9.16 35.3459 9.66133 36.5193 10.664C37.4366 11.4533 37.8953 12.552 37.8953 13.96C37.8953 14.4293 37.8419 14.9413 37.7353 15.496L37.0633 19.24C36.6579 21.5013 35.7086 23.1013 34.2153 24.04C32.7433 24.9787 30.7699 25.448 28.2953 25.448C25.8206 25.448 24.0073 24.9787 22.8553 24.04C22.0019 23.336 21.5753 22.28 21.5753 20.872C21.5753 20.3813 21.6286 19.8373 21.7353 19.24L22.4073 15.496C23.1539 11.272 26.1193 9.16 31.3033 9.16ZM32.1673 16.136C32.2099 15.9227 32.2313 15.656 32.2313 15.336C32.2313 14.9947 32.0926 14.6213 31.8153 14.216C31.5379 13.8107 31.0473 13.608 30.3433 13.608C29.6606 13.608 29.0846 13.8427 28.6153 14.312C28.1459 14.76 27.8473 15.368 27.7193 16.136L27.3033 18.536C27.2606 18.7493 27.2393 19.0267 27.2393 19.368C27.2393 19.688 27.3779 20.04 27.6553 20.424C27.9326 20.808 28.4126 21 29.0953 21C29.7993 21 30.3859 20.7653 30.8553 20.296C31.3246 19.8053 31.6233 19.2187 31.7513 18.536L32.1673 16.136ZM54.8058 20.072C54.8058 20.6267 55.0831 20.904 55.6378 20.904C56.2138 20.904 56.6938 20.7973 57.0778 20.584L56.9178 24.2C55.8938 25.032 54.7418 25.448 53.4618 25.448C51.1151 25.448 49.8138 24.5947 49.5578 22.888C48.4911 24.5947 46.9231 25.448 44.8538 25.448C41.3551 25.448 39.6058 23.944 39.6058 20.936C39.6058 20.424 39.6591 19.8587 39.7658 19.24L40.4378 15.496C40.7791 13.576 41.5578 12.0507 42.7738 10.92C44.0111 9.768 45.7178 9.192 47.8938 9.192C49.2378 9.192 50.3044 9.48 51.0938 10.056L52.7258 0.711998H58.1978L54.8378 19.688C54.8164 19.816 54.8058 19.944 54.8058 20.072ZM45.3338 18.536C45.2911 18.728 45.2698 18.9947 45.2698 19.336C45.2698 19.6773 45.4298 20.0187 45.7498 20.36C46.0698 20.68 46.6031 20.84 47.3498 20.84C48.1178 20.84 48.7791 20.5413 49.3338 19.944L50.2938 14.568C50.0591 14.0347 49.5044 13.768 48.6298 13.768C46.9871 13.768 46.0271 14.5573 45.7498 16.136L45.3338 18.536ZM65.7848 18.12C65.7208 18.504 65.6888 18.888 65.6888 19.272C65.6888 20.296 66.2648 20.808 67.4167 20.808C68.3554 20.808 69.1341 20.4773 69.7528 19.816L71.5448 9.608H76.9848L74.1688 25.512C73.6994 28.2213 72.6221 30.3653 70.9368 31.944C69.2728 33.5227 67.3634 34.312 65.2088 34.312C63.0541 34.312 61.4968 33.9173 60.5368 33.128C59.5981 32.3387 59.1288 31.304 59.1288 30.024C59.1288 28.2107 60.2488 26.6 62.4888 25.192C61.2728 24.8933 60.5048 24.2853 60.1848 23.368C59.9928 22.856 59.8968 22.28 59.8968 21.64C59.8968 21 59.9501 20.3493 60.0568 19.688L61.8488 9.608H67.2888L65.7848 18.12ZM65.9448 29.736C67.3314 29.736 68.2381 28.4773 68.6648 25.96L68.9848 24.104C66.0194 25.4907 64.5368 26.888 64.5368 28.296C64.5368 28.7227 64.6541 29.064 64.8888 29.32C65.1448 29.5973 65.4968 29.736 65.9448 29.736Z" fill="#00D1FF"/>
<path d="M91.1708 1.96C93.6028 1.96 95.3308 2.49333 96.3548 3.56C97.1228 4.37067 97.5068 5.39467 97.5068 6.632C97.5068 7.05867 97.4641 7.50667 97.3788 7.976L96.9308 10.472C96.6748 11.8587 96.2268 12.9787 95.5868 13.832C94.9681 14.6853 94.2748 15.2933 93.5068 15.656L96.4188 25H89.9548L87.2668 16.392H85.2828L83.9708 25H77.8268L81.8908 1.96H91.1708ZM89.1548 6.952H86.7548L85.9228 12.52H88.1628C89.2934 12.52 90.1041 12.2533 90.5948 11.72C91.0854 11.1653 91.3308 10.44 91.3308 9.544C91.3308 7.816 90.6054 6.952 89.1548 6.952ZM105.387 25.448C100.949 25.448 98.7308 23.912 98.7308 20.84C98.7308 20.4133 98.7734 19.9547 98.8588 19.464L99.5308 15.496C99.8934 13.448 100.832 11.88 102.347 10.792C103.883 9.68267 105.909 9.128 108.427 9.128C112.715 9.128 114.859 10.7493 114.859 13.992C114.859 14.4613 114.816 14.9733 114.731 15.528L114.347 17.8H104.587L104.459 18.536C104.416 18.792 104.395 19.0267 104.395 19.24C104.395 20.4133 105.088 21 106.475 21C106.987 21 107.424 20.84 107.787 20.52C108.149 20.2 108.363 19.8267 108.427 19.4L113.739 19.464C113.035 23.4533 110.251 25.448 105.387 25.448ZM109.227 15.848C109.312 15.4853 109.355 15.1547 109.355 14.856C109.355 14.536 109.216 14.216 108.939 13.896C108.661 13.576 108.213 13.416 107.595 13.416C106.997 13.416 106.443 13.6187 105.931 14.024C105.44 14.4293 105.099 15.0373 104.907 15.848H109.227ZM123.043 25.448C118.606 25.448 116.387 23.912 116.387 20.84C116.387 20.4133 116.43 19.9547 116.515 19.464L117.187 15.496C117.528 13.448 118.456 11.88 119.971 10.792C121.507 9.704 123.448 9.14933 125.795 9.128C130.339 9.128 132.611 10.7067 132.611 13.864C132.611 14.5467 132.526 15.1653 132.355 15.72C132.206 16.2533 132.046 16.616 131.875 16.808L131.619 17.128H126.179C126.712 16.6587 126.979 16.104 126.979 15.464C126.979 14.312 126.403 13.736 125.251 13.736C124.568 13.736 123.982 13.9387 123.491 14.344C123 14.7493 122.68 15.368 122.531 16.2L122.115 18.536C122.072 18.7493 122.051 18.952 122.051 19.144C122.051 20.2747 122.755 20.84 124.163 20.84C124.632 20.84 125.048 20.6907 125.411 20.392C125.795 20.0933 126.019 19.7627 126.083 19.4L131.395 19.464C130.691 23.4533 127.907 25.448 123.043 25.448ZM143.741 9.16C146.045 9.16 147.783 9.66133 148.957 10.664C149.874 11.4533 150.333 12.552 150.333 13.96C150.333 14.4293 150.279 14.9413 150.173 15.496L149.501 19.24C149.095 21.5013 148.146 23.1013 146.653 24.04C145.181 24.9787 143.207 25.448 140.733 25.448C138.258 25.448 136.445 24.9787 135.293 24.04C134.439 23.336 134.013 22.28 134.013 20.872C134.013 20.3813 134.066 19.8373 134.173 19.24L134.845 15.496C135.591 11.272 138.557 9.16 143.741 9.16ZM144.605 16.136C144.647 15.9227 144.669 15.656 144.669 15.336C144.669 14.9947 144.53 14.6213 144.253 14.216C143.975 13.8107 143.485 13.608 142.781 13.608C142.098 13.608 141.522 13.8427 141.053 14.312C140.583 14.76 140.285 15.368 140.157 16.136L139.741 18.536C139.698 18.7493 139.677 19.0267 139.677 19.368C139.677 19.688 139.815 20.04 140.093 20.424C140.37 20.808 140.85 21 141.533 21C142.237 21 142.823 20.7653 143.293 20.296C143.762 19.8053 144.061 19.2187 144.189 18.536L144.605 16.136ZM167.755 12.872C167.755 13.5973 167.627 14.3013 167.371 14.984C167.137 15.6667 166.902 16.168 166.667 16.488L166.315 16.936H161.483C162.017 16.4453 162.283 15.8373 162.283 15.112C162.283 14.728 162.155 14.4187 161.899 14.184C161.665 13.928 161.334 13.8 160.907 13.8C160.182 13.8 159.553 14.1627 159.019 14.888L157.227 25H151.787L154.507 9.608H159.563L159.179 11.752C160.395 10.024 161.867 9.16 163.595 9.16C164.982 9.16 166.017 9.49067 166.699 10.152C167.403 10.8133 167.755 11.72 167.755 12.872ZM183.681 20.072C183.681 20.6267 183.958 20.904 184.513 20.904C185.089 20.904 185.569 20.7973 185.953 20.584L185.793 24.2C184.769 25.032 183.617 25.448 182.337 25.448C179.99 25.448 178.689 24.5947 178.433 22.888C177.366 24.5947 175.798 25.448 173.729 25.448C170.23 25.448 168.481 23.944 168.481 20.936C168.481 20.424 168.534 19.8587 168.641 19.24L169.313 15.496C169.654 13.576 170.433 12.0507 171.649 10.92C172.886 9.768 174.593 9.192 176.769 9.192C178.113 9.192 179.179 9.48 179.969 10.056L181.601 0.711998H187.073L183.713 19.688C183.691 19.816 183.681 19.944 183.681 20.072ZM174.209 18.536C174.166 18.728 174.145 18.9947 174.145 19.336C174.145 19.6773 174.305 20.0187 174.625 20.36C174.945 20.68 175.478 20.84 176.225 20.84C176.993 20.84 177.654 20.5413 178.209 19.944L179.169 14.568C178.934 14.0347 178.379 13.768 177.505 13.768C175.862 13.768 174.902 14.5573 174.625 16.136L174.209 18.536Z" fill="#6100FF"/>
</svg>
