<?xml version="1.0" standalone="no"?>
<!DOCTYPE svg PUBLIC "-//W3C//DTD SVG 20010904//EN"
 "http://www.w3.org/TR/2001/REC-SVG-20010904/DTD/svg10.dtd">
<svg version="1.0" xmlns="http://www.w3.org/2000/svg"
 width="512.000000pt" height="512.000000pt" viewBox="0 0 512.000000 512.000000"
 preserveAspectRatio="xMidYMid meet">

<g transform="translate(0.000000,512.000000) scale(0.100000,-0.100000)"
fill="#000000" stroke="none">
<path d="M2415 5102 c-90 -23 -167 -59 -229 -107 -90 -69 -2050 -1717 -2103
-1769 -65 -62 -88 -116 -80 -188 8 -63 43 -118 99 -155 40 -27 48 -28 185 -31
l143 -4 2 -1166 3 -1167 22 -65 c56 -163 180 -308 324 -379 152 -75 45 -71
1779 -71 1735 0 1627 -4 1779 71 144 71 268 216 324 379 l22 65 3 1167 2 1166
143 4 c137 3 145 4 185 31 56 36 91 92 99 154 7 64 -9 115 -54 164 -56 62
-2117 1790 -2182 1830 -131 79 -320 108 -466 71z m233 -431 c25 -13 1632
-1353 1711 -1427 2 -2 -7 -13 -22 -24 -14 -11 -35 -39 -46 -63 -21 -43 -21
-46 -21 -1283 0 -1075 -2 -1247 -15 -1291 -18 -61 -80 -128 -134 -143 -25 -8
-522 -10 -1583 -8 l-1546 3 -43 30 c-26 18 -53 50 -68 80 l-26 49 -5 1271 c-5
1222 -6 1272 -24 1300 -10 17 -29 41 -41 55 l-23 25 839 705 c461 387 854 712
871 722 45 24 129 23 176 -1z"/>
</g>
</svg>
